<?xml version="1.0" standalone="no"?>
<!DOCTYPE svg PUBLIC "-//W3C//DTD SVG 20010904//EN"
 "http://www.w3.org/TR/2001/REC-SVG-20010904/DTD/svg10.dtd">
<svg version="1.0" xmlns="http://www.w3.org/2000/svg"
 width="557.000000pt" height="557.000000pt" viewBox="0 0 557.000000 557.000000"
 preserveAspectRatio="xMidYMid meet">
<metadata>
Created by potrace 1.14, written by Peter Selinger 2001-2017
</metadata>
<g transform="translate(0.000000,557.000000) scale(0.100000,-0.100000)"
fill="#000000" stroke="none">
<path d="M2561 5559 c-555 -49 -1038 -237 -1486 -578 -126 -96 -379 -346 -475
-471 -223 -289 -392 -616 -486 -942 -78 -271 -107 -487 -108 -778 0 -227 10
-336 50 -541 211 -1093 1072 -1961 2169 -2188 176 -36 350 -52 555 -53 466 0
863 95 1275 305 740 378 1277 1081 1450 1899 75 356 76 779 4 1133 -225 1086
-1083 1946 -2161 2164 -242 49 -567 70 -787 50z m-508 -1313 c18 -8 138 -121
269 -252 261 -264 271 -278 248 -366 -10 -37 -50 -81 -298 -331 l-287 -287
-330 330 -330 330 280 280 c154 154 293 286 310 295 38 18 96 19 138 1z m1680
0 c42 -18 1343 -1321 1357 -1359 15 -43 12 -86 -10 -131 -12 -26 -123 -144
-295 -316 l-275 -275 -752 753 -753 752 275 276 c151 151 291 284 310 294 42
23 99 25 143 6z m-2519 -841 c17 -8 327 -311 688 -673 722 -723 693 -688 668
-784 -10 -37 -50 -81 -298 -331 l-287 -287 -750 750 -750 750 275 276 c177
177 289 283 315 295 49 23 96 24 139 4z m1679 1 c18 -8 309 -292 688 -672 522
-524 659 -667 669 -697 16 -50 5 -107 -28 -151 -15 -19 -147 -152 -293 -295
l-266 -259 -749 749 -749 749 275 276 c177 177 289 283 315 295 48 22 94 24
138 5z"/>
</g>
</svg>
